HIERARCHY
ROOT Hips
{
  OFFSET 0.0 0.0 0.0
  CHANNELS 6 XPOSITION YPOSITION ZPOSITION ZROTATION XROTATION YROTATION 
  JOINT RightUpLeg
  {
    OFFSET -0.089458038 -0.086670642 0.001016508
    CHANNELS 3 ZROTATION XROTATION YROTATION 
    JOINT RightLeg
    {
      OFFSET 1.524e-006 -0.44256706 0.04075049
      CHANNELS 3 ZROTATION XROTATION YROTATION 
      JOINT RightFoot
      {
        OFFSET 0.001562862 -0.419119812 -0.041630854
        CHANNELS 3 ZROTATION XROTATION YROTATION 
        End Site
        {
          OFFSET 7.5692e-005 -0.04415155 0.084991702
        }
      }
    }
  }
  JOINT Spine
  {
    OFFSET 0.0 0.11890502 0.0
    CHANNELS 3 ZROTATION XROTATION YROTATION 
    JOINT Spine1
    {
      OFFSET 0.0 0.256575052 0.001270508
      CHANNELS 3 ZROTATION XROTATION YROTATION 
      End Site
      {
        OFFSET -0.002899918 0.215084406 0.0252476
      }
      JOINT RightArm
      {
        OFFSET -0.16272758 -0.05365633 0.001021842
        CHANNELS 3 ZROTATION XROTATION YROTATION 
        JOINT RightForeArm
        {
          OFFSET -0.263648698 -0.000263906 -0.014099794
          CHANNELS 3 ZROTATION XROTATION YROTATION 
          End Site
          {
            OFFSET -0.220319092 0.001914652 0.010174732
          }
        }
      }
      JOINT LeftArm
      {
        OFFSET 0.16272758 -0.05365633 0.001020826
        CHANNELS 3 ZROTATION XROTATION YROTATION 
        JOINT LeftForeArm
        {
          OFFSET 0.26260552 -0.000263144 -0.01410081
          CHANNELS 3 ZROTATION XROTATION YROTATION 
          End Site
          {
            OFFSET 0.220897958 0.001915922 0.01017524
          }
        }
      }
    }
  }
  JOINT LeftUpLeg
  {
    OFFSET 0.089458038 -0.086670642 0.001016508
    CHANNELS 3 ZROTATION XROTATION YROTATION 
    JOINT LeftLeg
    {
      OFFSET -3.048e-006 -0.442569346 0.040725598
      CHANNELS 3 ZROTATION XROTATION YROTATION 
      JOINT LeftFoot
      {
        OFFSET -0.002532888 -0.41911778 -0.041605708
        CHANNELS 3 ZROTATION XROTATION YROTATION 
        End Site
        {
          OFFSET -0.00040005 -0.044151042 0.084991194
        }
      }
    }
  }
}
MOTION
Frames: 18
Frame Time: 0.033333
0.2774696 0.974352639769 2.02981814 -2.07282666309 6.26460126852 -155.607241143 8.00516612236 -16.2408528368 4.13518691505 0.664562571925 2.53010825491 -0.705888151251 12.7340253961 -13.3175685843 -3.01052988731 -1.30508522585 9.57545051821 -0.323507347685 3.54093377683 0.414324050849 -1.09702869911 74.3496827007 -11.531445088 7.43932849208 10.1537882484 23.6656355872 0.455179707824 -82.3218111981 -14.2295900838 -16.2423213274 -16.1553952174 51.6170133881 8.10438742666 -2.81976803987 1.31035599745 1.93070515406 -3.248629428 13.7890343446 -7.15576208963 9.93753506781 -34.7042799653 -0.327332413702 
0.27266392 0.973367119769 2.02783948 -2.27507368706 6.19094749672 -154.41310551 8.94924169963 -17.0579381219 4.26274838176 0.288577013217 4.15864776107 -3.88654881935 12.3410128962 -12.8923952848 -2.95772569483 -1.36364652074 9.82428199364 -0.533625497658 3.46724307932 0.345210914103 -1.30152360236 74.7488526162 -11.0612710872 7.29521491569 10.0796226393 23.1696084667 1.02106237466 -83.2038003558 -13.8591709958 -16.4987915157 -16.247449092 51.8358424038 8.13176538618 -3.11792137851 1.41935749231 1.85326873812 -3.37939681475 14.0788264644 -8.13906429708 10.2847178522 -34.894801262 -0.318457970258 
0.26708354 0.972244439769 2.0256246 -2.41496385866 6.20375324764 -153.108061265 9.85667160445 -17.6790089307 3.95128364476 -0.112637503376 6.04987506206 -6.80688883343 11.8605073805 -12.2433668042 -2.90236701161 -1.16692853491 9.97666778289 -0.832692534183 3.3881552517 0.544289077139 -1.59497200788 75.163342646 -10.8226584286 7.48525809916 10.0769793561 23.1279818788 1.15678196873 -84.0997572503 -13.4592736652 -16.7681895445 -16.3242409088 52.0240482664 8.15570605299 -3.36376336552 1.57533948289 1.78047311555 -3.46738843428 14.4814780688 -9.22999064905 10.7209509354 -35.1594403565 -0.302243954942 
0.26104596 0.971147159769 2.02306682 -2.49578570056 6.13259505621 -151.768101094 10.5764241326 -18.0782744688 3.128590134 -0.332705584784 7.63516709106 -7.84296620505 11.7680274729 -11.7482071177 -2.92604706402 -0.964368923066 9.94698719585 -1.07394543448 3.45632267405 0.850351508034 -1.86060500161 75.5093463689 -10.7866940675 7.77500326149 10.0893112627 23.3237897419 1.08137710718 -84.8622659089 -13.2844216762 -17.214443369 -16.2729308202 52.421128144 8.21114669848 -3.601654372 1.67786862646 1.69192558265 -3.53723565628 14.8584498695 -10.3087797549 11.1560356931 -35.4146811107 -0.284670198373 
0.25500076 0.970268319769 2.02001628 -2.53847779796 5.88177343441 -150.52012991 11.0962245803 -18.3092902495 1.82891890028 -0.320352333897 8.68763264781 -7.11444243336 12.0415227614 -11.5456382211 -3.01547088884 -0.885218343086 9.84111499485 -1.13246574823 3.59424916628 0.924565355348 -1.94825383103 75.6929418538 -10.7494311167 7.75396798639 10.0772884222 23.5326808324 1.12169944911 -85.2376940868 -13.3726805269 -17.8076162701 -16.1247498662 52.8663096288 8.27656454281 -3.84519842723 1.72071408295 1.61802976602 -3.65712959532 15.0616650728 -11.3195350539 11.5564376039 -35.6019102562 -0.272543811151 
0.24897588 0.969691739769 2.01642726 -2.54576923834 5.50199186467 -149.389351111 11.4479750537 -18.2866993989 0.339653247872 -0.155249466123 9.0911141202 -6.21173090859 12.2398543795 -11.432441496 -3.07741579541 -0.863559813228 9.69236798888 -1.09361221714 3.67141365531 0.789358238911 -1.9165820304 75.7243880448 -10.5521197582 7.4552411253 10.074716856 23.7429260079 1.29251298202 -85.0934678123 -13.3978087929 -18.2679795579 -16.0743020889 52.862778421 8.27688641547 -4.0921106195 1.77074948749 1.55334200489 -3.80811092692 15.0708124036 -12.2957782608 11.9016917137 -35.7410275492 -0.263655734009 
0.24276558 0.969409799769 2.0123912 -2.52309002209 5.04967710104 -148.304580467 11.5565793304 -17.8798916243 -0.563202244477 0.167532360726 8.721669188 -5.95146313518 12.0657861547 -11.5968629323 -3.01643181108 -0.895714529572 9.36559722483 -1.10219392295 3.76027270886 0.775154913893 -1.94127764656 75.6911045329 -10.3332608604 7.29786588286 10.1175660477 23.9716126941 1.33638574166 -84.5788335489 -13.0277576814 -18.4225621067 -16.2807530943 52.3535126863 8.20162285346 -4.38377890697 1.85182692787 1.42564468145 -3.88658339719 14.9282680632 -13.2133228221 12.1037602989 -35.8580525954 -0.253063097782 
0.23625302 0.969348839769 2.00791064 -2.48718286385 4.52416704205 -147.244111636 11.3762034259 -17.1099978237 -0.0329586976438 0.614159991358 7.64306961993 -6.45165795178 11.2451107514 -12.3933218999 -2.7348766859 -1.05594884651 8.82394614818 -1.15142966174 3.98651247984 0.993665632129 -2.04690801618 75.627597434 -10.3551575931 7.42749945821 10.1606636876 24.1011489393 1.16978739596 -84.0028778472 -12.3401557074 -18.3825389057 -16.66377132 51.8195148366 8.12147314487 -4.74612129621 1.96614700566 1.23042453475 -3.87603715822 14.647537043 -14.0379238766 12.1522392741 -35.9633775275 -0.239686172293 
0.22929342 0.969422499769 2.00280524 -2.41941970332 3.93237298538 -146.252122282 11.0646998422 -16.1770452095 1.6233938124 0.786072064146 6.35374035984 -8.56480023333 9.18649515064 -13.5235414764 -2.13810769019 -1.27794333475 8.18564960231 -1.15840349833 4.29311540281 1.25123953625 -2.12460675407 75.4934934999 -10.6076466348 7.54976752832 10.1296682892 24.0352376138 1.03264370745 -83.5831285717 -11.7248939745 -18.3276378452 -16.9853844374 51.4853273409 8.07078716481 -5.10653586456 2.13151677108 1.08705224733 -3.89534524923 14.2359045936 -14.8926144757 12.2083475706 -36.0564012889 -0.228094380776 
0.22147022 0.969483459769 1.99693022 -2.23416426902 3.29966481492 -145.348980029 10.7782613452 -15.3182274686 2.96544124727 0.394422667196 5.5933464986 -12.6238903033 5.88198303584 -14.5966282281 -1.29820775896 -1.35943325452 7.44036668084 -1.13092340614 4.53115731378 1.44778762113 -2.14248434734 75.2547374073 -10.8450230292 7.45490815358 10.0416860611 23.914865775 1.08878316668 -83.3781955759 -11.4571915402 -18.2952200598 -17.0966584643 51.1229243337 8.02147576033 -5.37575801598 2.31210675929 1.05726077644 -4.00894794371 13.7616982199 -15.8317740243 12.4036585375 -36.1449137103 -0.22030221549 
0.21228558 0.969280259769 1.99034908 -1.87251514398 2.65827312615 -144.575051294 10.4219192771 -14.5721078489 3.28012577814 -0.098406330663 5.56642658864 -16.3888459606 2.7304560594 -16.1313239232 -0.545061101959 -1.18038496807 6.46337684884 -1.1193152862 4.64208428166 1.68112086372 -2.14592398792 74.9387182147 -10.9748922461 7.29854890178 9.98441834005 23.9735268546 1.16173065423 -83.3831816139 -11.5367222629 -18.2356642254 -17.0187926002 50.7359019097 7.97380701634 -5.56417902952 2.47159466462 1.03826602036 -4.12396192603 13.3035658427 -16.5629474825 12.6744516324 -36.305645137 -0.203258745737 
0.20170902 0.968884019769 1.98316342 -1.40436159855 2.11204134044 -144.060683408 9.98398974568 -13.7300872507 3.11231955618 -0.161421342451 5.64967933755 -16.7441148352 0.792203386226 -18.6324794331 -0.11830043723 -0.784250591433 5.35092430193 -1.09738269501 4.66057018865 1.96764793973 -2.12425307834 74.5842587176 -11.1204213792 7.26881196568 9.99741021362 24.1826621244 1.04150715856 -83.5555755886 -11.8197277361 -18.0747517987 -16.8550883337 50.6412115821 7.9650805959 -5.71815966794 2.76801868474 0.95161034314 -4.14737666828 12.7669204409 -16.8509663146 12.8790900763 -36.6001048374 -0.164047550186 
0.1902206 0.968823059769 1.97518528 -0.918864175103 1.78126989981 -143.871186639 9.76644053665 -12.6597496502 3.30021806024 0.170983300464 5.08418962003 -14.1542428519 -1.10042874593 -21.0764833352 0.213481724655 -0.289625367214 4.34179031904 -1.0377785156 4.68490401823 2.21035700434 -2.07084142592 74.2010099731 -11.310485907 7.32670977173 10.0505371325 24.2410226757 0.816278469029 -83.8083472294 -12.1950859046 -17.7417510484 -16.6892786614 50.8698658249 7.99717053217 -5.7931431922 3.45198678459 0.887510405162 -4.10386025242 11.9396026786 -16.9761175783 12.9313435848 -36.9212603321 -0.116953702684 
0.17834356 0.969503779769 1.96618098 -0.372561392778 1.65474662185 -143.849248072 10.0102509693 -11.5507207356 3.92174435726 0.473373090617 3.88110174349 -12.1668285582 -4.1905413294 -21.880360742 0.717918355535 0.19221067463 3.41665592356 -1.02361964018 4.86397066081 2.40608226486 -2.10165368992 73.8243933422 -11.4311019251 7.38316213899 10.0986481313 23.9546755325 0.70820235808 -84.0690350595 -12.617867784 -17.2434972862 -16.5625530391 51.2486476257 8.04835340848 -5.68012362511 4.50587494168 0.956155513867 -4.04398041085 10.7653770471 -17.2829843173 12.7628837991 -37.0998834393 -0.0878903139508 
0.16630142 0.970667099769 1.95648072 0.34575444775 1.58774780217 -143.811804975 10.5577930841 -10.7247126621 4.34463125085 0.53942785008 2.82799030697 -12.2709761364 -7.33539521103 -21.4223760676 1.26393376299 0.643791753216 2.39942432453 -1.14140080961 5.24308714088 2.58298886012 -2.31725565471 73.5563493984 -11.5275740783 7.46688147519 10.0973572255 23.4571184496 0.74769381817 -84.3351733805 -13.0539215748 -16.6838008497 -16.4918844869 51.94600994 8.1419013869 -5.34021712663 5.60867515064 1.15111152434 -3.97171786321 9.44928924028 -17.6474551642 12.3769721346 -37.1720956143 -0.0725379563471 
0.1541653 0.971797399769 1.94704716 1.2241996711 1.49582146007 -143.817924824 11.0093061543 -10.3662156694 4.32685525665 0.693676253262 2.68213247102 -12.7096561349 -8.50493618657 -21.6161502419 1.44784226264 1.18799700046 1.4120192011 -1.33070419821 5.64559829952 2.60598183819 -2.61760895459 73.4863672802 -11.8108348298 7.61318241967 9.98188946251 22.9889345952 0.849794847617 -84.640831176 -13.4595895614 -16.1653826615 -16.4634060131 53.1575181591 8.31167256891 -4.87207425337 6.50266068186 1.40524226606 -3.92024342319 8.25696104612 -17.884554936 11.9793057145 -37.2398032796 -0.0581578134727 
0.14208506 0.972727039769 1.93865754 2.10454798259 1.38797127897 -144.02069948 11.14901682 -10.3643928626 4.04399108302 1.18582030454 3.37180612671 -11.87745991 -7.62360101947 -23.0391228252 1.19568245738 1.89183796258 0.763547541007 -1.47333082108 5.88417509968 2.35341617028 -2.83659442434 73.5898992876 -12.2254682935 7.77872486081 9.73472284569 22.5617831023 1.09631398384 -84.981165842 -13.7805708864 -15.7524328394 -16.4289972276 54.390462927 8.49728552093 -4.4614812734 7.13614322502 1.65764400944 -3.94947748661 7.39596703614 -18.0998356684 11.6479339643 -37.1657981799 -0.0645006979939 
0.13041376 0.973623659769 1.93119502 2.80724360737 1.20430834597 -144.347018598 10.9946810117 -10.4471773167 3.56629490955 1.83335041239 4.15511868771 -10.3500033616 -6.45417573026 -24.5166515446 0.915991226783 2.49243826753 0.423640162073 -1.57364303465 6.0364452026 1.99878463772 -2.98611857777 73.7667533758 -12.3623854119 7.93853335814 9.4582009296 22.0231902428 1.65488322563 -85.2802256748 -13.8943148804 -15.5493849758 -16.3870820642 54.9322779282 8.58382316394 -4.23888284703 7.49079482125 1.88388314008 -4.05069662124 6.99339782089 -18.1867856841 10.651621954 -36.8587845918 -0.0889870662407 
